<svg xmlns="http://www.w3.org/2000/svg" viewBox="0 0 512 512">
  <defs>
    <linearGradient id="g" x1="0" y1="0" x2="1" y2="1">
      <stop offset="0" stop-color="#a78bfa"/>
      <stop offset="1" stop-color="#22d3ee"/>
    </linearGradient>
  </defs>
  <rect x="40" y="40" width="432" height="432" rx="140" fill="url(#g)"/>
  <path d="M256 368c-64-42-112-84-112-140 0-35 24-60 58-60 21 0 40 11 54 28 14-17 33-28 54-28 34 0 58 25 58 60 0 56-48 98-112 140z" fill="rgba(255,255,255,0.92)"/>
  <path d="M202 268c14 18 33 32 54 44 21-12 40-26 54-44" fill="none" stroke="rgba(11,18,32,0.55)" stroke-width="18" stroke-linecap="round"/>
</svg>
